<?xml version="1.0" encoding="UTF-8"?>
<svg xmlns="http://www.w3.org/2000/svg" xmlns:xlink="http://www.w3.org/1999/xlink" viewBox="0 0 30 30" width="30px" height="30px">
<g id="surface34050401">
<path style=" stroke:none;fill-rule:nonzero;fill:rgb(99.607843%,77.64706%,24.313726%);fill-opacity:1;" d="M 12.5 14.375 C 13.125 14.375 15 13.363281 15 10.863281 C 15 6.976562 11.558594 6.25 7.683594 6.25 C 6.949219 6.25 4.71875 6.25 3.125 6.25 C 2.089844 6.25 1.25 7.089844 1.25 8.125 L 1.25 21.875 C 1.25 22.910156 2.089844 23.75 3.125 23.75 L 10.5 23.75 C 13.261719 23.75 15.601562 21.566406 15.625 18.804688 C 15.65625 15.003906 12.5 14.375 12.5 14.375 Z M 5 9.375 L 9.375 9.375 C 10.410156 9.375 11.25 10.214844 11.25 11.25 C 11.25 12.285156 10.410156 13.125 9.375 13.125 L 5 13.125 Z M 9.6875 20.625 L 5 20.625 L 5 16.25 L 9.6875 16.25 C 10.894531 16.25 11.875 17.230469 11.875 18.4375 C 11.875 19.644531 10.894531 20.625 9.6875 20.625 Z M 28.445312 18.125 C 28.960938 18.125 29.382812 17.707031 29.382812 17.1875 C 29.382812 13.5625 26.875 10.625 23.132812 10.625 C 19.679688 10.625 16.882812 13.5625 16.882812 17.1875 C 16.882812 20.8125 19.679688 23.75 23.132812 23.75 C 26.1875 23.75 27.882812 22.320312 28.710938 20.222656 C 28.871094 19.820312 28.558594 19.378906 28.125 19.378906 L 26.621094 19.378906 C 26.394531 19.378906 26.191406 19.511719 26.074219 19.707031 C 25.503906 20.648438 24.632812 21.25 23.457031 21.25 C 21.699219 21.25 20.421875 19.914062 20.09375 18.125 Z M 23.132812 13.125 C 24.429688 13.125 25.6875 14.160156 26.042969 15.625 L 20.246094 15.625 C 20.71875 14.15625 21.832031 13.125 23.132812 13.125 Z M 25.9375 9.375 L 20.9375 9.375 C 20.421875 9.375 20 8.953125 20 8.4375 C 20 7.921875 20.421875 7.5 20.9375 7.5 L 25.9375 7.5 C 26.453125 7.5 26.875 7.921875 26.875 8.4375 C 26.875 8.953125 26.453125 9.375 25.9375 9.375 Z M 25.9375 9.375 "/>
</g>
</svg>
