<?xml version="1.0" encoding="UTF-8"?>
<svg xmlns="http://www.w3.org/2000/svg" xmlns:xlink="http://www.w3.org/1999/xlink" viewBox="0 0 30 30" width="30px" height="30px">
<g id="surface34071694">
<path style=" stroke:none;fill-rule:nonzero;fill:rgb(99.607843%,77.64706%,24.313726%);fill-opacity:1;" d="M 19.199219 6.601562 L 22.199219 6.601562 C 22.53125 6.601562 22.800781 6.332031 22.800781 6 L 22.800781 1.957031 C 22.800781 1.644531 22.558594 1.382812 22.246094 1.359375 C 21.289062 1.292969 19.425781 1.199219 18.085938 1.199219 C 14.398438 1.199219 12 3.40625 12 7.421875 L 12 11.398438 L 7.800781 11.398438 C 7.46875 11.398438 7.199219 11.667969 7.199219 12 L 7.199219 16.199219 C 7.199219 16.53125 7.46875 16.800781 7.800781 16.800781 L 12 16.800781 L 12 28.199219 C 12 28.53125 12.269531 28.800781 12.601562 28.800781 L 16.800781 28.800781 C 17.132812 28.800781 17.398438 28.53125 17.398438 28.199219 L 17.398438 16.800781 L 21.734375 16.800781 C 22.039062 16.800781 22.296875 16.570312 22.328125 16.265625 L 22.796875 12.066406 C 22.835938 11.710938 22.558594 11.398438 22.199219 11.398438 L 17.398438 11.398438 L 17.398438 8.398438 C 17.398438 7.40625 18.207031 6.601562 19.199219 6.601562 Z M 19.199219 6.601562 "/>
</g>
</svg>
